IKResults
version=1
nRows=13
nColumns=17
inDegrees=yes

Units are S.I. units (second, meters, Newtons, ...)
If the header above contains a line with 'inDegrees', this indicates whether rotational values are in degrees (yes) or radians (no).

endheader
time	ground_to_pelvis_rx	ground_to_pelvis_ry	ground_to_pelvis_rz	ground_to_pelvis_tx	ground_to_pelvis_ty	ground_to_pelvis_tz	rx	ry	rz	femur_l_to_tibia_l_rz	tibia_l_to_metatarsal_l_rz	rx	ry	rz	femur_r_to_tibia_r_rz	tibia_r_to_metatarsal_r_rz
     19.25000000	    153.45742089	     -1.08462227	   -183.51621245	      0.16358011	     -0.33633819	     -3.26717706	    -60.53386739	     23.30771953	     -0.64453390	     39.51171971	     18.76678349	    -52.78087077	      3.95609181	     15.83170446	     53.54114493	     29.41226628
     19.26700000	    154.22595375	     -2.28800836	   -184.29291841	      0.16933705	     -0.33764820	     -3.27602984	    -59.63003972	     21.88912211	     -0.65965215	     40.35675760	     18.77364836	    -54.74874144	      5.18472732	     14.83910637	     55.55708666	     25.26949090
     19.28300000	    154.65486502	     -3.35145869	   -185.12010464	      0.17480641	     -0.33779282	     -3.28378030	    -58.93478663	     20.31719340	     -0.70485250	     40.80973453	     19.14862203	    -56.78126528	      5.98982642	     13.56518617	     56.78811637	     21.51018842
     19.30000000	    154.97593488	     -4.23144292	   -185.96001343	      0.17989384	     -0.33733195	     -3.29085444	    -58.00266218	     18.31730716	     -0.88496260	     40.92143593	     19.09353051	    -58.65428269	      6.25520718	     12.13890195	     56.97077119	     18.83796357
     19.31700000	    155.27809936	     -4.84981621	   -186.69984354	      0.18434064	     -0.33635068	     -3.29761933	    -57.42601678	     17.84795756	     -0.08673945	     40.98400607	     19.52680567	    -60.41735739	      6.72359636	     11.02678465	     56.71664889	     16.96111340
     19.33300000	    155.50931592	     -5.26281526	   -187.23705868	      0.18786730	     -0.33523286	     -3.30389025	    -56.79393584	     17.47553487	      0.54337270	     40.91575207	     19.87452284	    -61.96927560	      7.62854819	     10.39835912	     55.93387940	     16.11150318
     19.35000000	    155.58277801	     -5.81875213	   -187.89000638	      0.19159944	     -0.33493585	     -3.30949543	    -55.92574236	     13.92722196	     -0.87889477	     41.35161253	     18.89345131	    -63.95274443	      8.57345246	     10.20885591	     55.37505088	     16.92602434
     19.36700000	    155.60501347	     -5.85806313	   -187.95812618	      0.19272584	     -0.33431874	     -3.31421247	    -55.29622077	     13.52687935	     -0.80663109	     41.32351443	     18.89192519	    -65.63655957	     10.98727508	     10.31079897	     53.81187422	     17.68969727
     19.38300000	    155.58615646	     -5.74556409	   -187.95097865	      0.19320463	     -0.33360016	     -3.31874380	    -54.53982855	     13.21799279	     -0.70639610	     41.18008443	     18.56152277	    -66.71831791	     13.31520046	     10.57985153	     51.19014449	     18.76134827
     19.40000000	    155.51661100	     -5.42878895	   -188.12666134	      0.19492384	     -0.33254658	     -3.32283261	    -54.08914800	     13.09907756	     -0.10954345	     41.24037409	     17.78441784	    -67.60485913	     15.78940084	     11.43943378	     47.19907999	     23.94661981
     19.41700000	    155.07857013	     -5.14372781	   -188.52923946	      0.19818513	     -0.33053234	     -3.32539875	    -54.10190821	     12.87837093	      0.68467896	     41.07005640	     17.74604303	    -68.05751403	     18.34846209	     12.61148600	     42.71605249	     29.66464740
     19.43300000	    155.20508037	     -5.03282191	   -188.97236001	      0.20218892	     -0.33021743	     -3.32986835	    -53.81873226	     12.97408284	      1.81780608	     41.16847381	     17.80753274	    -67.27362312	     20.42717655	     14.13872454	     39.12623304	     33.20335208
     19.45000000	    155.41885529	     -5.36629464	   -189.37172853	      0.20614777	     -0.33091819	     -3.33468901	    -53.55001456	     12.95741738	      2.52113451	     41.55123033	     17.78970925	    -65.50109235	     21.56857801	     15.16507514	     36.72620856	     34.85899729
